<?xml version="1.0" encoding="UTF-8" standalone="no"?>
<svg
   xmlns:dc="http://purl.org/dc/elements/1.1/"
   xmlns:cc="http://creativecommons.org/ns#"
   xmlns:rdf="http://www.w3.org/1999/02/22-rdf-syntax-ns#"
   xmlns:svg="http://www.w3.org/2000/svg"
   xmlns="http://www.w3.org/2000/svg"
   xmlns:sodipodi="http://sodipodi.sourceforge.net/DTD/sodipodi-0.dtd"
   xmlns:inkscape="http://www.inkscape.org/namespaces/inkscape"
   width="18"
   height="18"
   viewBox="0 0 18 18"
   version="1.1"
   id="svg6"
   sodipodi:docname="settings.svg"
   inkscape:version="0.92.4 (5da689c313, 2019-01-14)">
  <metadata
     id="metadata12">
    <rdf:RDF>
      <cc:Work
         rdf:about="">
        <dc:format>image/svg+xml</dc:format>
        <dc:type
           rdf:resource="http://purl.org/dc/dcmitype/StillImage" />
      </cc:Work>
    </rdf:RDF>
  </metadata>
  <defs
     id="defs10" />
  <sodipodi:namedview
     pagecolor="#ffffff"
     bordercolor="#666666"
     borderopacity="1"
     objecttolerance="10"
     gridtolerance="10"
     guidetolerance="10"
     inkscape:pageopacity="0"
     inkscape:pageshadow="2"
     inkscape:window-width="1920"
     inkscape:window-height="1001"
     id="namedview8"
     showgrid="false"
     inkscape:zoom="9.8333333"
     inkscape:cx="9"
     inkscape:cy="21.20339"
     inkscape:window-x="2391"
     inkscape:window-y="-9"
     inkscape:window-maximized="1"
     inkscape:current-layer="svg6" />
  <path
     d="M -3,-3 H 21 V 21 H -3 Z"
     id="path2"
     inkscape:connector-curvature="0"
     style="fill:none" />
  <path
     d="M 9,7 C 7.9,7 7,7.9 7,9 c 0,1.1 0.9,2 2,2 1.1,0 2,-0.9 2,-2 C 11,7.9 10.1,7 9,7 Z M 16,0 H 2 C 0.89,0 0,0.9 0,2 v 14 c 0,1.1 0.89,2 2,2 h 14 c 1.11,0 2,-0.9 2,-2 V 2 C 18,0.9 17.11,0 16,0 Z m -1.75,9 c 0,0.23 -0.02,0.46 -0.05,0.68 l 1.48,1.16 c 0.13,0.11 0.17,0.3 0.08,0.45 l -1.4,2.42 c -0.09,0.15 -0.27,0.21 -0.43,0.15 l -1.74,-0.7 c -0.36,0.28 -0.76,0.51 -1.18,0.69 L 10.75,15.7 C 10.72,15.87 10.57,16 10.4,16 H 7.6 C 7.43,16 7.28,15.87 7.25,15.71 L 6.99,13.86 C 6.56,13.68 6.17,13.45 5.81,13.17 l -1.74,0.7 c -0.16,0.06 -0.34,0 -0.43,-0.15 L 2.24,11.3 C 2.15,11.15 2.19,10.96 2.32,10.85 L 3.8,9.69 C 3.77,9.46 3.75,9.23 3.75,9 3.75,8.77 3.77,8.54 3.8,8.32 L 2.32,7.16 C 2.19,7.05 2.15,6.86 2.24,6.71 L 3.64,4.29 C 3.73,4.14 3.91,4.08 4.07,4.14 l 1.74,0.7 C 6.17,4.56 6.57,4.33 6.99,4.15 L 7.25,2.3 C 7.28,2.13 7.43,2 7.6,2 h 2.8 c 0.17,0 0.32,0.13 0.35,0.29 l 0.26,1.85 c 0.43,0.18 0.82,0.41 1.18,0.69 l 1.74,-0.7 c 0.16,-0.06 0.34,0 0.43,0.15 l 1.4,2.42 c 0.09,0.15 0.05,0.34 -0.08,0.45 L 14.2,8.31 c 0.03,0.23 0.05,0.46 0.05,0.69 z"
     id="path4"
     inkscape:connector-curvature="0" />
</svg>
